<mxfile host="app.diagrams.net" agent="Mozilla/5.0 (Macintosh; Intel Mac OS X 10_15_7) AppleWebKit/537.36 (KHTML, like Gecko) Chrome/136.0.0.0 Safari/537.36" version="27.0.6">
  <diagram name="Page-1" id="4QF8zZwpviu2KnxnIhf_">
    <mxGraphModel grid="1" page="1" gridSize="10" guides="1" tooltips="1" connect="1" arrows="1" fold="1" pageScale="1" pageWidth="827" pageHeight="1169" math="0" shadow="0">
      <root>
        <mxCell id="0" />
        <mxCell id="1" parent="0" />
        <mxCell id="oFwFl6e0-aOz6lBSiZdN-1" value="Data Layer" style="rounded=1;whiteSpace=wrap;html=1;verticalAlign=top;fontSize=16;" vertex="1" parent="1">
          <mxGeometry x="510" y="560" width="520" height="280" as="geometry" />
        </mxCell>
        <mxCell id="-Z1LP4OinahVajAx4-7G-2" value="" style="rounded=0;whiteSpace=wrap;html=1;strokeColor=none;" vertex="1" parent="1">
          <mxGeometry x="120" y="330" width="80" height="170" as="geometry" />
        </mxCell>
        <mxCell id="-Z1LP4OinahVajAx4-7G-3" value="" style="edgeStyle=orthogonalEdgeStyle;rounded=0;exitX=0;exitY=0.5;endArrow=none;dashed=0;html=1;strokeColor=#808080;strokeWidth=2;" edge="1" parent="1" source="-Z1LP4OinahVajAx4-7G-5" target="-Z1LP4OinahVajAx4-7G-4">
          <mxGeometry relative="1" as="geometry" />
        </mxCell>
        <mxCell id="-Z1LP4OinahVajAx4-7G-4" value="" style="strokeWidth=2;dashed=0;align=center;fontSize=8;shape=ellipse;fillColor=#808080;strokeColor=none;" vertex="1" parent="1">
          <mxGeometry x="140.75" y="350" width="12" height="12" as="geometry" />
        </mxCell>
        <mxCell id="-Z1LP4OinahVajAx4-7G-5" value="E" style="strokeWidth=2;dashed=0;align=center;fontSize=8;shape=rect;fillColor=#83BEFF;fontStyle=1;whiteSpace=wrap;html=1;" vertex="1" parent="1">
          <mxGeometry x="156.75" y="368" width="12" height="12" as="geometry" />
        </mxCell>
        <mxCell id="-Z1LP4OinahVajAx4-7G-6" value="" style="edgeStyle=orthogonalEdgeStyle;rounded=0;exitX=0;exitY=0.5;endArrow=none;dashed=0;html=1;strokeColor=#808080;strokeWidth=2;" edge="1" parent="1" source="-Z1LP4OinahVajAx4-7G-8" target="-Z1LP4OinahVajAx4-7G-7">
          <mxGeometry relative="1" as="geometry" />
        </mxCell>
        <mxCell id="-Z1LP4OinahVajAx4-7G-7" value="" style="strokeWidth=2;dashed=0;align=center;fontSize=8;shape=ellipse;fillColor=#808080;strokeColor=none;" vertex="1" parent="1">
          <mxGeometry x="141" y="400" width="12" height="12" as="geometry" />
        </mxCell>
        <mxCell id="-Z1LP4OinahVajAx4-7G-8" value="C" style="strokeWidth=2;dashed=0;align=center;fontSize=8;shape=rect;fillColor=#FF8080;fontStyle=1;whiteSpace=wrap;html=1;" vertex="1" parent="1">
          <mxGeometry x="157" y="418" width="12" height="12" as="geometry" />
        </mxCell>
        <mxCell id="-Z1LP4OinahVajAx4-7G-9" value="" style="edgeStyle=orthogonalEdgeStyle;rounded=0;exitX=0;exitY=0.5;endArrow=none;dashed=0;html=1;strokeColor=#808080;strokeWidth=2;" edge="1" parent="1" source="-Z1LP4OinahVajAx4-7G-11" target="-Z1LP4OinahVajAx4-7G-10">
          <mxGeometry relative="1" as="geometry" />
        </mxCell>
        <mxCell id="-Z1LP4OinahVajAx4-7G-10" value="" style="strokeWidth=2;dashed=0;align=center;fontSize=8;shape=ellipse;fillColor=#808080;strokeColor=none;" vertex="1" parent="1">
          <mxGeometry x="141" y="450" width="12" height="12" as="geometry" />
        </mxCell>
        <mxCell id="-Z1LP4OinahVajAx4-7G-11" value="D" style="strokeWidth=2;dashed=0;align=center;fontSize=8;shape=rect;fillColor=#C7A0FF;fontStyle=1;whiteSpace=wrap;html=1;" vertex="1" parent="1">
          <mxGeometry x="157" y="468" width="12" height="12" as="geometry" />
        </mxCell>
        <mxCell id="-Z1LP4OinahVajAx4-7G-12" style="edgeStyle=orthogonalEdgeStyle;rounded=0;orthogonalLoop=1;jettySize=auto;html=1;entryX=0;entryY=0.5;entryDx=0;entryDy=0;" edge="1" parent="1" source="-Z1LP4OinahVajAx4-7G-24" target="-Z1LP4OinahVajAx4-7G-14">
          <mxGeometry relative="1" as="geometry" />
        </mxCell>
        <mxCell id="-Z1LP4OinahVajAx4-7G-14" value="" style="rounded=0;whiteSpace=wrap;html=1;strokeColor=none;" vertex="1" parent="1">
          <mxGeometry x="540" y="330" width="80" height="170" as="geometry" />
        </mxCell>
        <mxCell id="-Z1LP4OinahVajAx4-7G-15" value="" style="edgeStyle=orthogonalEdgeStyle;rounded=0;exitX=0;exitY=0.5;endArrow=none;dashed=0;html=1;strokeColor=#808080;strokeWidth=2;" edge="1" parent="1" source="-Z1LP4OinahVajAx4-7G-17" target="-Z1LP4OinahVajAx4-7G-16">
          <mxGeometry relative="1" as="geometry" />
        </mxCell>
        <mxCell id="-Z1LP4OinahVajAx4-7G-16" value="" style="strokeWidth=2;dashed=0;align=center;fontSize=8;shape=ellipse;fillColor=#808080;strokeColor=none;" vertex="1" parent="1">
          <mxGeometry x="560.75" y="350" width="12" height="12" as="geometry" />
        </mxCell>
        <mxCell id="-Z1LP4OinahVajAx4-7G-17" value="E" style="strokeWidth=2;dashed=0;align=center;fontSize=8;shape=rect;fillColor=#83BEFF;fontStyle=1;whiteSpace=wrap;html=1;" vertex="1" parent="1">
          <mxGeometry x="576.75" y="368" width="12" height="12" as="geometry" />
        </mxCell>
        <mxCell id="-Z1LP4OinahVajAx4-7G-18" value="" style="edgeStyle=orthogonalEdgeStyle;rounded=0;exitX=0;exitY=0.5;endArrow=none;dashed=0;html=1;strokeColor=#808080;strokeWidth=2;" edge="1" parent="1" source="-Z1LP4OinahVajAx4-7G-20" target="-Z1LP4OinahVajAx4-7G-19">
          <mxGeometry relative="1" as="geometry" />
        </mxCell>
        <mxCell id="-Z1LP4OinahVajAx4-7G-19" value="" style="strokeWidth=2;dashed=0;align=center;fontSize=8;shape=ellipse;fillColor=#808080;strokeColor=none;" vertex="1" parent="1">
          <mxGeometry x="561" y="400" width="12" height="12" as="geometry" />
        </mxCell>
        <mxCell id="-Z1LP4OinahVajAx4-7G-20" value="C" style="strokeWidth=2;dashed=0;align=center;fontSize=8;shape=rect;fillColor=#FF8080;fontStyle=1;whiteSpace=wrap;html=1;" vertex="1" parent="1">
          <mxGeometry x="577" y="418" width="12" height="12" as="geometry" />
        </mxCell>
        <mxCell id="-Z1LP4OinahVajAx4-7G-21" value="" style="edgeStyle=orthogonalEdgeStyle;rounded=0;exitX=0;exitY=0.5;endArrow=none;dashed=0;html=1;strokeColor=#808080;strokeWidth=2;" edge="1" parent="1" source="-Z1LP4OinahVajAx4-7G-23" target="-Z1LP4OinahVajAx4-7G-22">
          <mxGeometry relative="1" as="geometry" />
        </mxCell>
        <mxCell id="-Z1LP4OinahVajAx4-7G-22" value="" style="strokeWidth=2;dashed=0;align=center;fontSize=8;shape=ellipse;fillColor=#808080;strokeColor=none;" vertex="1" parent="1">
          <mxGeometry x="561" y="450" width="12" height="12" as="geometry" />
        </mxCell>
        <mxCell id="-Z1LP4OinahVajAx4-7G-23" value="D" style="strokeWidth=2;dashed=0;align=center;fontSize=8;shape=rect;fillColor=#C7A0FF;fontStyle=1;whiteSpace=wrap;html=1;" vertex="1" parent="1">
          <mxGeometry x="577" y="468" width="12" height="12" as="geometry" />
        </mxCell>
        <mxCell id="-Z1LP4OinahVajAx4-7G-25" value="" style="edgeStyle=orthogonalEdgeStyle;rounded=0;orthogonalLoop=1;jettySize=auto;html=1;entryX=0;entryY=0.5;entryDx=0;entryDy=0;exitX=1;exitY=0.5;exitDx=0;exitDy=0;" edge="1" parent="1" source="-Z1LP4OinahVajAx4-7G-2" target="-Z1LP4OinahVajAx4-7G-24">
          <mxGeometry relative="1" as="geometry">
            <mxPoint x="445" y="415" as="sourcePoint" />
            <mxPoint x="720" y="415" as="targetPoint" />
          </mxGeometry>
        </mxCell>
        <mxCell id="-Z1LP4OinahVajAx4-7G-28" style="edgeStyle=orthogonalEdgeStyle;rounded=0;orthogonalLoop=1;jettySize=auto;html=1;" edge="1" parent="1" source="-Z1LP4OinahVajAx4-7G-24" target="-Z1LP4OinahVajAx4-7G-27">
          <mxGeometry relative="1" as="geometry" />
        </mxCell>
        <mxCell id="-Z1LP4OinahVajAx4-7G-24" value="&lt;font style=&quot;font-size: 16px;&quot;&gt;Wire Tap&lt;/font&gt;" style="html=1;strokeWidth=2;outlineConnect=0;dashed=0;align=center;fontSize=8;verticalLabelPosition=bottom;verticalAlign=top;shape=mxgraph.eip.wire_tap;fillColor=#c0f5a9" vertex="1" parent="1">
          <mxGeometry x="280" y="370" width="150" height="90" as="geometry" />
        </mxCell>
        <mxCell id="oFwFl6e0-aOz6lBSiZdN-3" style="edgeStyle=orthogonalEdgeStyle;rounded=0;orthogonalLoop=1;jettySize=auto;html=1;entryX=0.5;entryY=1;entryDx=0;entryDy=0;" edge="1" parent="1" source="-Z1LP4OinahVajAx4-7G-26" target="oFwFl6e0-aOz6lBSiZdN-2">
          <mxGeometry relative="1" as="geometry">
            <mxPoint x="900" y="532" as="targetPoint" />
          </mxGeometry>
        </mxCell>
        <mxCell id="-Z1LP4OinahVajAx4-7G-26" value="CDR" style="shape=datastore;whiteSpace=wrap;html=1;" vertex="1" parent="1">
          <mxGeometry x="870" y="650" width="60" height="60" as="geometry" />
        </mxCell>
        <mxCell id="-Z1LP4OinahVajAx4-7G-32" style="edgeStyle=orthogonalEdgeStyle;rounded=0;orthogonalLoop=1;jettySize=auto;html=1;" edge="1" parent="1" source="-Z1LP4OinahVajAx4-7G-27" target="-Z1LP4OinahVajAx4-7G-30">
          <mxGeometry relative="1" as="geometry" />
        </mxCell>
        <mxCell id="-Z1LP4OinahVajAx4-7G-27" value="&lt;font style=&quot;font-size: 16px;&quot;&gt;Repository Service&lt;/font&gt;" style="strokeWidth=2;dashed=0;align=center;fontSize=8;shape=rect;fillColor=#c0f5a9;verticalLabelPosition=bottom;verticalAlign=top;html=1;" vertex="1" parent="1">
          <mxGeometry x="280" y="635" width="150" height="90" as="geometry" />
        </mxCell>
        <mxCell id="-Z1LP4OinahVajAx4-7G-29" value="Extract" style="rounded=0;whiteSpace=wrap;html=1;" vertex="1" parent="1">
          <mxGeometry x="576.75" y="610" width="120" height="45" as="geometry" />
        </mxCell>
        <mxCell id="-Z1LP4OinahVajAx4-7G-33" style="edgeStyle=orthogonalEdgeStyle;rounded=0;orthogonalLoop=1;jettySize=auto;html=1;entryX=0;entryY=0.5;entryDx=0;entryDy=0;" edge="1" parent="1" source="-Z1LP4OinahVajAx4-7G-30" target="-Z1LP4OinahVajAx4-7G-26">
          <mxGeometry relative="1" as="geometry" />
        </mxCell>
        <mxCell id="-Z1LP4OinahVajAx4-7G-34" value="REST API&amp;nbsp;&lt;br&gt;or SQL" style="edgeLabel;html=1;align=center;verticalAlign=middle;resizable=0;points=[];" connectable="0" vertex="1" parent="-Z1LP4OinahVajAx4-7G-33">
          <mxGeometry x="0.0444" y="-3" relative="1" as="geometry">
            <mxPoint as="offset" />
          </mxGeometry>
        </mxCell>
        <mxCell id="-Z1LP4OinahVajAx4-7G-30" value="Transform" style="rounded=0;whiteSpace=wrap;html=1;" vertex="1" parent="1">
          <mxGeometry x="576.75" y="655" width="120" height="50" as="geometry" />
        </mxCell>
        <mxCell id="-Z1LP4OinahVajAx4-7G-31" value="Load" style="rounded=0;whiteSpace=wrap;html=1;" vertex="1" parent="1">
          <mxGeometry x="576.75" y="705" width="120" height="50" as="geometry" />
        </mxCell>
        <mxCell id="-Z1LP4OinahVajAx4-7G-35" value="&lt;font&gt;Data Pipeline&lt;/font&gt;" style="text;html=1;align=center;verticalAlign=middle;whiteSpace=wrap;rounded=0;fillColor=#ffe6cc;strokeColor=#d79b00;" vertex="1" parent="1">
          <mxGeometry x="576.75" y="760" width="120" height="30" as="geometry" />
        </mxCell>
        <mxCell id="-Z1LP4OinahVajAx4-7G-36" value="FHIR RESTful" style="rounded=0;whiteSpace=wrap;html=1;fillColor=#f8cecc;strokeColor=#b85450;" vertex="1" parent="1">
          <mxGeometry x="720" y="625" width="120" height="30" as="geometry" />
        </mxCell>
        <mxCell id="-Z1LP4OinahVajAx4-7G-37" value="IHE Laboratory Testing Workflow (LTW)&amp;nbsp;&amp;nbsp;" style="rounded=0;whiteSpace=wrap;html=1;fillColor=#e1d5e7;strokeColor=#9673a6;" vertex="1" parent="1">
          <mxGeometry x="272.5" y="290" width="165" height="35" as="geometry" />
        </mxCell>
        <mxCell id="-Z1LP4OinahVajAx4-7G-38" value="Asynchronous I/O&amp;nbsp;&lt;br&gt;Domain Events" style="rounded=0;whiteSpace=wrap;html=1;fillColor=#dae8fc;strokeColor=#6c8ebf;" vertex="1" parent="1">
          <mxGeometry x="272.5" y="260" width="165" height="30" as="geometry" />
        </mxCell>
        <mxCell id="-Z1LP4OinahVajAx4-7G-39" value="HL 7 v2/FHIR Messaging&amp;nbsp;&amp;nbsp;" style="rounded=0;whiteSpace=wrap;html=1;fillColor=#f8cecc;strokeColor=#b85450;" vertex="1" parent="1">
          <mxGeometry x="272.5" y="325" width="165" height="25" as="geometry" />
        </mxCell>
        <mxCell id="-Z1LP4OinahVajAx4-7G-41" value="&lt;font&gt;Datalake&lt;/font&gt;" style="text;html=1;align=center;verticalAlign=middle;whiteSpace=wrap;rounded=0;fillColor=#ffe6cc;strokeColor=#d79b00;" vertex="1" parent="1">
          <mxGeometry x="840" y="760" width="120" height="30" as="geometry" />
        </mxCell>
        <mxCell id="oFwFl6e0-aOz6lBSiZdN-2" value="&lt;font style=&quot;font-size: 16px;&quot;&gt;Data Sharing Service&lt;/font&gt;" style="strokeWidth=2;dashed=0;align=center;fontSize=8;shape=rect;fillColor=#c0f5a9;verticalLabelPosition=bottom;verticalAlign=top;html=1;" vertex="1" parent="1">
          <mxGeometry x="825" y="372" width="150" height="90" as="geometry" />
        </mxCell>
        <mxCell id="oFwFl6e0-aOz6lBSiZdN-4" value="IHE Query for Existing Data (QEDm)" style="rounded=0;whiteSpace=wrap;html=1;fillColor=#e1d5e7;strokeColor=#9673a6;" vertex="1" parent="1">
          <mxGeometry x="900" y="290" width="165" height="35" as="geometry" />
        </mxCell>
        <mxCell id="oFwFl6e0-aOz6lBSiZdN-5" value="REST API" style="rounded=0;whiteSpace=wrap;html=1;fillColor=#dae8fc;strokeColor=#6c8ebf;" vertex="1" parent="1">
          <mxGeometry x="817.5" y="260" width="165" height="30" as="geometry" />
        </mxCell>
        <mxCell id="oFwFl6e0-aOz6lBSiZdN-6" value="HL 7 REST (Read Only)&amp;nbsp;&amp;nbsp;" style="rounded=0;whiteSpace=wrap;html=1;fillColor=#f8cecc;strokeColor=#b85450;" vertex="1" parent="1">
          <mxGeometry x="817.5" y="325" width="165" height="25" as="geometry" />
        </mxCell>
        <mxCell id="oFwFl6e0-aOz6lBSiZdN-7" value="HL7 International Patient Access (IPA)" style="rounded=0;whiteSpace=wrap;html=1;fillColor=#e1d5e7;strokeColor=#9673a6;" vertex="1" parent="1">
          <mxGeometry x="735" y="290" width="165" height="35" as="geometry" />
        </mxCell>
      </root>
    </mxGraphModel>
  </diagram>
</mxfile>
